
<svg xmlns="http://www.w3.org/2000/svg" version="1.1" xmlns:xlink="http://www.w3.org/1999/xlink" preserveAspectRatio="none" x="0px" y="0px" width="500px" height="500px" viewBox="0 0 500 500">
<defs>
<g id="Layer1_0_FILL">
<path fill="#91C5D5" stroke="none" d="
M 340 473.65
Q 338.2 473.6 336.4 473.5 349.05 489.85 361.95 498.35 362.25 498.55 362.55 498.75 374.6 506.5 384.2 505.85 393.45 505.25 397.4 497.1 401.45 488.6 398.3 474.65 368.4 474.85 340 473.65
M 188.6 498.25
Q 191.65 499 194.7 499.7 235 508.95 271.55 503.05 280.45 501.6 288.6 499.4
L 290.9 498.7
Q 315.2 491.5 332.75 476.75
L 329.65 473.2
Q 194.5 466.05 94.6 426.05
L 92 427.5 88.35 429.45 87.95 429.65
Q 88.05 429.85 88.15 430.05 91.45 436.65 96.15 442.95 107.15 457.75 125.85 470.5 142.05 481.55 161.15 489.25 174.2 494.5 188.6 498.25 Z"/>

<path fill="#66CCFF" fill-opacity="0.9882352941176471" stroke="none" d="
M 336.4 473.5
Q 333 473.35 329.65 473.2
L 332.75 476.75
Q 334.6 475.15 336.4 473.5 Z"/>

<path fill="#B5DEE3" stroke="none" d="
M 67.1 444.35
Q 66.85 444.6 66.6 444.85 66.45 445.1 66.3 445.35 66.26953125 445.4259765625 66.25 445.5 66.6708984375 444.9216796875 67.1 444.35
M 75.9 432.4
Q 75.7 432.65 75.55 432.9 75.4 433.15 75.2 433.4 75.05 433.65 74.9 433.9 74.65 434.15 74.4 434.4 74.25 434.65 74.05 434.9 73.9 435.15 73.75 435.4 73.55 435.65 73.4 435.9 73.25 436.15 73.05 436.4 72.8 436.65 72.55 436.9 72.3 437.15 72.05 437.4 71.9 437.65 71.75 437.9 71.5 438.15 71.25 438.35 71 438.6 70.75 438.85 70.5 439.1 70.25 439.35 70.1 439.6 69.9 439.85 69.75 440.1 69.6 440.35 69.4 440.6 69.25 440.85 69.1 441.1 68.95 441.35 68.7 441.6 68.45 441.85 68.25 442.1 68.1 442.35 68 442.6 67.95 442.85 67.85 443.1 67.75 443.35 67.72890625 443.4556640625 67.7 443.55 74.0279296875 435.2025390625 79.85 428.85 79.60625 428.919921875 79.35 428.95 78.85 429.2 78.35 429.45 78.1 429.7 77.85 429.95 77.6 430.2 77.35 430.4 77.2 430.65 77.05 430.9 76.9 431.15 76.7 431.4 76.45 431.65 76.2 431.9 76.05 432.15 75.9 432.4
M 289.05 506.9
Q 313.6 505.9 322.6 507.8 325.4 508.35 327.7 509.15 327.95 509.25 337.45 508.95 346.95 508.6 359.45 507.9 371.9 507.15 365.05 502.9 358.2 498.65 360.65 498.5 361.35 498.45 361.95 498.35 349.05 489.85 336.4 473.5 334.6 475.15 332.75 476.75 315.2 491.5 290.9 498.7
L 288.6 499.4 289.05 506.9
M 191.25 501.6
Q 190.7462890625 500.0771484375 188.6 498.25 174.2 494.5 161.15 489.25 142.05 481.55 125.85 470.5 107.15 457.75 96.15 442.95
L 87.7 443.05
Q 87.7 442.4935546875 87.7 441.9 87.7 437.9986328125 87.7 433.5 87.7 431.4 88.15 430.05 88.05 429.85 87.95 429.65 86.4875 426.7248046875 85.35 423.7
L 84.5 424.1
Q 82.219921875 426.3259765625 79.85 428.85 74.0279296875 435.2025390625 67.7 443.55 67.6578125 443.7056640625 67.6 443.85 67.35 444.1 67.1 444.35 66.6708984375 444.9216796875 66.25 445.5 66.16953125 445.6759765625 66.1 445.85 65.95 446.1 65.8 446.3 65.6 446.55 65.45 446.8 65.3 447.05 65.1 447.3 64.95 447.55 64.8 447.8 64.7 448.05 64.6 448.3 64.55 448.55 64.45 448.8 64.3 449.05 64.1 449.3 63.9 449.55 63.65 449.8 63.45 450.05 63.3 450.3 63.15 450.55 62.95 450.8 62.9 451.05 62.8 451.3 62.65 451.55 62.45 451.8 62.4 452.05 62.3 452.3 62.2 452.55 62.15 452.8 62.05 453.05 61.95 453.3 61.8 453.55 61.65 453.8 61.4 454.05 61.15 454.25 61 454.5 60.8 454.75 60.75 455 60.65 455.25 60.55 455.5 60.5 455.75 60.3 456 60.15 456.25 60 456.5 59.8 456.75 59.75 457 59.65 457.25 59.5 457.5 59.3 457.75 59.25 458 59.15 458.25 59 458.5 58.8 458.75 58.65 459 58.5 459.25 58.35 459.5 58.15 459.75 58.1 460 58 460.25 57.9 460.5 57.85 460.75 57.75 461 57.65 461.25 57.4 461.5 57.15 461.75 57 462 56.85 462.2 56.75 462.45 56.65 462.7 56.5 462.95 56.35 463.2 56.25 463.45 56.15 463.7 56.1 463.95 56 464.2 55.85 464.45 55.7 464.7 55.6 464.95 55.5 465.2 55.25 465.45 55 465.7 54.85 465.95 54.7 466.2 54.5 466.45 54.35 466.7 54.2 466.95 54 467.2 53.85 467.45 53.7 467.7 53.45 467.95 53.2 468.2 53.05 468.45 52.85 468.7 52.8 468.95 52.7 469.2 52.6 469.45 52.55 469.7 52.55 469.95 52.55 470.15 52.35 470.4 52.2 470.65 52.1 470.9 52.05 471.15 51.95 471.4 51.85 471.65 51.7 471.9 51.55 472.15 51.45 472.4 51.35 472.65 51.1 472.9 50.85 473.15 50.65 473.4 50.4 473.65 50.2 473.9 50.05 474.15 49.9 474.4 49.7 474.65 49.65 474.9 49.55 475.15 49.45 475.4 49.4 475.65 49.2 475.9 49.05 476.15 48.9 476.4 48.7 476.65 48.55 476.9 48.4 477.15 48.15 477.4 47.9 477.65 47.75 477.9 47.55 478.1 47.5 478.35 47.4 478.6 47.25 478.85 47.05 479.1 47 479.35 46.9 479.6 46.75 479.85 46.55 480.1 46.4 480.35 46.25 480.6 46.05 480.85 45.9 481.1 45.65 481.35 45.4 481.6 45.15 481.85 44.9 482.1 44.65 482.35 44.4 482.6 44.15 482.85 43.9 483.1 43.75 483.35 43.6 483.6 43.4 483.85 43.25 484.1 43.1 484.35 42.9 484.6 42.65 484.85 42.45 485.1 42.2 485.35 41.95 485.6 41.75 485.85 41.6 486.05 41.5 486.3 41.45 486.55 41.25 486.8 41.1 487.05 40.85 487.3 40.6 487.55 40.45 487.8 40.25 488.05 40.2 488.3 40.1 488.55 39.95 488.8 39.8 489.05 39.6 489.3 39.45 489.55 39.35 489.8 39.3 490.05 39.1 490.3 38.95 490.55 38.8 490.8 38.6 491.05 38.45 491.3 38.3 491.55 38.2 491.8 38.1 492.05 37.95 492.3 37.8 492.55 37.7 492.8 37.6 493.05 37.35 493.3 37.15 493.55 36.95 493.8 36.8 494.05 36.65 494.25 36.45 494.5 36.3 494.75 36.15 495 36.05 495.25 35.95 495.5 35.95 495.75 35.95 496 35.95 496.25 35.95 496.5 35.9 496.75 35.8 497 35.7 497.25 35.65 497.5 35.55 497.75 35.45 498 35.3 498.25 35.15 498.5 34.95 498.75 34.8 499 34.7 499.25 34.65 499.5 34.65 499.75 34.65 500 34.65 500.25 34.65 500.5 34.55 500.75 34.5 501 34.5 501.25 34.5 501.5 34.4 501.75 34.3 502 34.25 502.2 34.15 502.45 34.05 502.7 34 502.95 34 503.2 34 503.45 33.9 503.7 33.8 503.95 33.8 504.2 33.8 504.45 33.9 504.7 34 504.95 34 505.2 34 505.45 34 505.7 34 505.95 34.05 506.2 34.15 506.45 34.3 506.7 34.5 506.95 34.65 507.2 34.8 507.45 35.05 507.7 35.3 507.95 35.55 508.2 35.8 508.45 36.15 508.7 36.45 508.95 36.95 509.2 37.45 509.45 38.1 509.6 38.8 509.75 39.2 509.85 39.6 509.9 40.2 510 40.75 510.1 47.15 510.15 53.5 510.25 54 510.35 54.5 510.4 55 510.5 55.5 510.6 56.1 510.65 56.65 510.75 57.1 510.85 57.5 510.9 57.75 511 58 511.05 58.35 511.15 58.65 511.25 59.15 511.35 59.65 511.4 59.9 511.5 60.15 511.6 60.55 511.65 61 511.75 61.8 511.9 62.65 512.1 63.45 512.25 64.3 512.4 64.55 512.5 64.8 512.55 65.1 512.65 65.45 512.75 65.8 512.8 66.1 512.9 66.45 513 66.75 513.05 67.1 513.15 67.45 513.2 68 513.3 68.6 513.4 69 513.5 69.4 513.55 69.65 513.65 69.9 513.7 70.25 513.8 70.6 513.9 71.15 514 71.75 514.05 83.85 514.05 95.9 514.05 96.5 514 97.1 513.9 97.5 513.75 97.9 513.55 98.25 513.3 98.55 513.05 98.9 512.8 99.25 512.6 99.4 512.35 99.55 512.1 99.75 511.85 99.9 511.6 100 511.35 100.05 511.1 100.15 510.85 100.25 510.6 100.3 510.35 100.4 510.1 100.4 509.85 100.4 509.6 100.4 509.35 100.4 509.1 100.4 508.85 100.4 508.6 100.3 508.35 100.25 508.1 100.1859375 507.9396484375 100.1 507.75 105.85390625 507.8396484375 119.95 507.9 195.0119140625 512.23046875 191.25 501.6 Z"/>

<path fill="#B8E7FF" stroke="none" d="
M 87.7 433.5
Q 87.7 437.9986328125 87.7 441.9 87.7 442.4935546875 87.7 443.05
L 96.15 442.95
Q 91.45 436.65 88.15 430.05 87.7 431.4 87.7 433.5
M 89.8 427.75
Q 88.85 428.25 88.35 429.45
L 92 427.5
Q 90.8 427.2 89.8 427.75
M 289.05 506.9
L 288.6 499.4 256.8 508.9
Q 275.35 507.45 289.05 506.9 Z"/>

<path fill="#CCFF99" fill-opacity="0.9882352941176471" stroke="none" d="
M 421.3 258.8
Q 421.35 258.7 421.4 258.65
L 416.75 253.45 421.3 258.8
M 421.4 258.65
L 422.4 258.6
Q 422.35 258.15 422.3 257.7 421.85 258.2 421.4 258.65
M 350.95 319.65
L 351.05 319.9 351 319.65 350.95 319.65 Z"/>

<path fill="#FFFFFF" fill-opacity="0.9882352941176471" stroke="none" d="
M 422.35 246.9
Q 431.7 242.55 431.95 232.2 432.2 221.8 421.35 213.9 417.25 210.9 412.15 209.05 403.65 205.95 392.4 205.95 374.35 205.95 359.8 213.55 345.15 221.2 344.95 231.5 344.7 241.85 358.9 248.75 366.05 252.2 374.6 253.4 383.15 254.5 393.1 253.4 406.75 251.9 415.45 249.4
L 415.55 249.4
Q 418.2 248.6 420.4 247.75 420.4 247.7 420.45 247.7 420.55 247.65 420.65 247.65 420.8 247.55 421 247.5 421.7 247.2 422.35 246.9
M 270.8 232.55
Q 270.8 222.95 257.9 216.2 245 209.4 226.75 209.4 208.55 209.4 195.6 216.2 182.75 222.95 183.55 232.55 184.35 242.1 196.6 248.9 208.6 255.5 226.15 255.65 226.55 255.65 226.95 255.65 245 255.65 257.9 248.9 262.5 246.5 265.45 243.75 268.3 241.05 269.65 238 270.8 235.4 270.8 232.55
M 312.7 318.65
Q 308.4 317.4 305.35 316.1 304.35 315.65 302.65 315.2 300.2 321.55 299.95 323.35 299.75 324.4 299.75 326.1 299.75 327.75 300.5 329.05 301.35 330.5 303.8 332.95
L 310 332.95
Q 309.35 329.6 310.55 326.15 312.35 321.1 312.7 318.65
M 330.5 335.7
L 330.5 321.3
Q 321.7 320.95 313.9 318.95
L 318.25 320.6
Q 318.7 323.35 318.4 326.5 318.25 328.2 317.9 330.85 317.8 332.8 318.75 333.8 319.9 335.05 323 335.7
L 330.5 335.7
M 344.1 343.3
Q 343.05 343.2 341.35 343.2 337.9 343.2 336.65 343.95 334.6 345.1 334.6 348.65 334.6 349.85 334.75 350.3 334.85 350.65 334.7 354.75 339.75 355.4 345.5 356.05 345.45 352.55 345.95 349.3 346.5 346.15 346.55 345.2 346.65 343.9 345.65 343.55 345.2 343.4 344.1 343.3
M 351.05 319.9
L 350.95 319.65
Q 342.15 321.35 337.75 321.4 337.35 329.85 339.15 332.6 340.9 335.3 344.75 335.65 345.3 335.7 345.85 335.7 352.4 335.7 352.4 332.2 352.4 331.65 351.7 327 351.05 322.3 351.05 319.9 Z"/>

<path fill="#E3EB93" stroke="none" d="
M 361.5 189.95
Q 355.65 192 353.4 188.1 351.65 185.1 352.2 184.05 352.6 183.2 356.6 180.05 360.55 176.8 376.4 170.8 392.2 164.8 397.3 170.2
L 400.15 168.75
Q 386.4 141.8 357.65 117.55 308.15 75.8 242.1 97.65 215.95 122.6 194.55 132.2 173.1 141.8 159.85 145.05 146.6 148.3 137 149.55 144.4 163.1 146.9 181.05 149.45 199.4 149.45 213.1 149.45 221.4 146.95 228.7 145.55 232.95 142.2 238.95 141.4 240.4 140.45 241.95 135.7 249.85 132.85 254.75 129.95 259.6 134.65 260.25 135.95 260.45 137.25 260.9 162.55 284.75 143.95 314
L 140.95 319.4
Q 173.5 362.3 128.65 376.3 134.8 383.75 136 391.8 137.25 399.85 137.25 401.35 137.25 404.65 134.85 409.85 134.2 411.35 133.3 412.8 112.45 429.55 94.6 426.05 194.5 466.05 329.65 473.2 333 473.35 336.4 473.5 338.2 473.6 340 473.65 368.4 474.85 398.3 474.65 401.35 461.9 414.35 448.1 419.05 443.2 426.85 436.15 435.9 428.15 440.45 424 457 408.8 464.7 396.5 475.45 379.4 475.45 359.95 475.45 346.35 467.7 334.4 463.3 327.55 450.3 313.95 437.5 300.6 431.8 291.6 424.308984375 279.5642578125 422.4 258.65 422.40234375 258.625 422.4 258.6
L 421.4 258.65
Q 421.35 258.7 421.3 258.8 421.2748046875 258.824609375 421.25 258.85 404.9974609375 274.543359375 371.25 270.3 404.9974609375 274.543359375 421.25 258.85 421.2748046875 258.824609375 421.3 258.8
L 416.75 253.45
Q 403.75 263.2 374 260.1 373.85 260.1 373.75 260.1 373.7130859375 260.095703125 373.65 260.1 364.9572265625 259.0916015625 354.85 257.1 364.9572265625 259.0916015625 373.65 260.1 373.7130859375 260.095703125 373.75 260.1 373.85 260.1 374 260.1 403.75 263.2 416.75 253.45 417.15 253.1 417.6 252.8 419.45 251.25 420.95 249.4
L 420.4 247.75
Q 418.2 248.6 415.55 249.4
L 415.45 249.4
Q 406.75 251.9 393.1 253.4 383.15 254.5 374.6 253.4 366.05 252.2 358.9 248.75 344.7 241.85 344.95 231.5 345.15 221.2 359.8 213.55 374.35 205.95 392.4 205.95 403.65 205.95 412.15 209.05 410.7 194.75 405.6 181.15
L 403.1 182.05
Q 390.65 179.65 381.6 181.4 374.9 182.65 371.95 184.35 364.05 189 361.5 189.95
M 335.6 131.35
Q 348.5 128.85 351.75 129.3 348.5 128.85 335.6 131.35 321.35 134.15 312.95 134.15 307.4 134.15 298.95 132.85 297.85 132.65 287.15 130.75 276.85 129 271.7 128.5
L 251.3 127.4
Q 249.45 127.55 248.05 127.85 243.65 128.8 234.7 128.8 243.65 128.8 248.05 127.85 249.45 127.55 251.3 127.4
L 271.7 128.5
Q 276.85 129 287.15 130.75 297.85 132.65 298.95 132.85 307.4 134.15 312.95 134.15 321.35 134.15 335.6 131.35
M 330.75 156.15
Q 346.15 150.25 348.4 149.5 358.7 145.85 364.9 145 358.7 145.85 348.4 149.5 346.15 150.25 330.75 156.15 328.8 156.95 327.4 157.15 326 157.25 322.4 158.05 318.75 158.75 307.65 159.25 291.75 156.1 274.8 150.9 247.8 142.6 238.85 142.6 231.05 142.6 228.95 142.9 223.1 143.8 218.75 147.4 223.1 143.8 228.95 142.9 231.05 142.6 238.85 142.6 247.8 142.6 274.8 150.9 291.75 156.1 307.65 159.25 318.75 158.75 322.4 158.05 326 157.25 327.4 157.15 328.8 156.95 330.75 156.15
M 351 319.65
L 351.05 319.9
Q 351.05 322.3 351.7 327 352.4 331.65 352.4 332.2 352.4 335.7 345.85 335.7 345.3 335.7 344.75 335.65
L 344.1 343.3
Q 345.2 343.4 345.65 343.55 346.65 343.9 346.55 345.2 346.5 346.15 345.95 349.3 345.45 352.55 345.5 356.05 346.2 356.1 346.9 356.2 351.2 363.4 342.15 365.15 333.1 366.9 317.55 368.45 333.1 366.9 342.15 365.15 351.2 363.4 346.9 356.2
L 345.5 356.25
Q 345.5 356.55 345.5 356.85 345.5 356.55 345.5 356.25 345.5 356.15 345.5 356.05 339.75 355.4 334.7 354.75 331.35 354.25 328.35 353.85 328.5 355.45 328.1 353.8 327.75 353.7 327.45 353.7 324.05 353.15 321.05 352.65 318.1 352.1 315.5 351.55 314.15 351.25 312.85 350.8 303.1 347.25 292.75 332.4 292.2 332.45 291.65 332.6 292.2 332.45 292.75 332.4 291.9 331.25 291.1 330 278.5 310.95 290.2 312.75 298.5 314 302.65 315.2 304.35 315.65 305.35 316.1 308.4 317.4 312.7 318.65 313.3 318.8 313.9 318.95 321.7 320.95 330.5 321.3 332.2 321.35 333.9 321.35
L 337.75 321.4
Q 342.15 321.35 350.95 319.65
L 351 319.65
Q 351.35 319.55 351.8 319.45 361.2 317.55 361.2 311.15 361.2 304.7 356.3 303.85 351.35 303 346.5 304.3 341.65 305.55 335.15 303.35 328.65 301.1 326.2 300.05 319.8 284.4 319.5 284.4 317.5 284.4 312.85 287.25 307 291.2 303.8 293.3 307 291.2 312.85 287.25 317.5 284.4 319.5 284.4 319.8 284.4 326.2 300.05 328.65 301.1 335.15 303.35 341.65 305.55 346.5 304.3 351.35 303 356.3 303.85 361.2 304.7 361.2 311.15 361.2 317.55 351.8 319.45 351.35 319.55 351 319.65
M 199.6 186.65
Q 191.75 189.15 190.7 189.15
L 191.55 185.85
Q 199 175.55 202.75 171.85 205.75 168.65 213.6 168.45 217.7 168.3 223.45 168.45 231.05 168.7 239.8 170.25 245.85 171.35 257.65 174.5 259.95 175.15 262.1 176.4 264.9 178.05 266.25 179.5 267.55 180.9 269.15 183.2 270.8 185.45 265.7 190.65 231.5 179.5 219.5 181.85 207.45 184.15 199.6 186.65
M 312.9 117.2
Q 317.6 116.4 320.7 116.7 317.6 116.4 312.9 117.2 307.25 118.15 301.95 118.15 298.15 118.15 294.95 117.65 291.7 117.15 290.1 116.2
L 278.9 116.2 290.1 116.2
Q 291.7 117.15 294.95 117.65 298.15 118.15 301.95 118.15 307.25 118.15 312.9 117.2
M 257.9 216.2
Q 270.8 222.95 270.8 232.55 270.8 235.4 269.65 238 268.3 241.05 265.45 243.75 271.1 248 269.7 252.15 268.8 254.75 265.45 256.85 263.85 257.85 261.65 258.75 255 261.45 245.65 262 235.65 262.6 225.95 260.45 235.65 262.6 245.65 262 255 261.45 261.65 258.75 263.85 257.85 265.45 256.85 268.8 254.75 269.7 252.15 271.1 248 265.45 243.75 262.5 246.5 257.9 248.9 245 255.65 226.95 255.65 226.55 255.65 226.15 255.65 208.6 255.5 196.6 248.9 184.35 242.1 183.55 232.55 182.75 222.95 195.6 216.2 208.55 209.4 226.75 209.4 245 209.4 257.9 216.2
M 262.75 265.95
Q 269.5 262.35 265.75 257.4 269.5 262.35 262.75 265.95 256.3 269.35 241.7 272.35 227.05 275.35 214.55 270.25 202 265.15 191.65 258.4 202 265.15 214.55 270.25 227.05 275.35 241.7 272.35 256.3 269.35 262.75 265.95
M 173 251.3
Q 170.5 251.55 168.3 251.6 154.35 251.85 149.5 243.05 154.35 251.85 168.3 251.6 170.5 251.55 173 251.3
M 152 256.4
Q 159.65 260.65 168.3 259.25 159.65 260.65 152 256.4
M 162.95 395.45
Q 219.25 434.05 271.75 408.3 219.25 434.05 162.95 395.45 Z"/>

<path fill="#DED6C6" stroke="none" d="
M 190.7 189.15
Q 191.75 189.15 199.6 186.65 207.45 184.15 219.5 181.85 231.5 179.5 265.7 190.65 270.8 185.45 269.15 183.2 267.55 180.9 266.25 179.5 264.9 178.05 262.1 176.4 259.95 175.15 257.65 174.5 245.85 171.35 239.8 170.25 231.05 168.7 223.45 168.45 217.7 168.3 213.6 168.45 205.75 168.65 202.75 171.85 199 175.55 191.55 185.85
L 190.7 189.15
M 353.4 188.1
Q 355.65 192 361.5 189.95 364.05 189 371.95 184.35 374.9 182.65 381.6 181.4 390.65 179.65 403.1 182.05
L 405.6 181.15
Q 404.95 179.35 404.2 177.55 403.8 176.55 403.35 175.55 402.85 174.4 402.35 173.35 401.3 171 400.15 168.75
L 397.3 170.2
Q 392.2 164.8 376.4 170.8 360.55 176.8 356.6 180.05 352.6 183.2 352.2 184.05 351.65 185.1 353.4 188.1
M 394.25 94.05
Q 389 90.85 387.15 84.9 384.3 75.55 378.9 67.45 364.55 46.1 338.55 45.25 320.6 44.9 302.8 48.65 298.1 49.75 293.4 48.65 279.25 45.3 265.9 39 259.9 36.1 253.35 35.2 236.75 32.55 222.55 35.25 195.05 40.55 182.85 62.7
L 182.85 72.65
Q 186.45 72.7 191.65 72.75 197.55 72.65 201.8 71.7 212.5 69.2 224.8 57.95 212.5 69.2 201.8 71.7 197.55 72.65 191.65 72.75 186.45 72.7 182.85 72.65 182.75 72.65 182.7 72.65 181.35 72.65 180.25 72.65 169.7 72.65 148.9 68.95 128.1 65.25 117.65 65.25 108.6 65.25 96 70.55 82.2193359375 76.341796875 73.2 85
L 73.2 85.05 71.65 83.2
Q 64.65 77.45 59.3 76.1 57.3 75.55 51.15 75.55 21.75 75.55 21.75 101.85 21.75 109.85 22.2 111.5 23.05 114.55 28.1 121.7
L 26.8 123
Q 19.75 120.05 17 119.4 15.65 119.1 12.15 119.1 -2 119.1 -10.05 135.85 -16.55 149.5 -16.55 166.55 -16.55 185.55 -2.7 192.8 -0.7927734375 193.7939453125 1.3 194.55 12.380859375 198.465234375 29.4 195.95 12.380859375 198.465234375 1.3 194.55 0.4052734375 195.125390625 -0.5 195.8 -3.858984375 198.5521484375 -6.6 203.2 -10.05 209.05 -10.05 213.85 -10.05 219.2 -7.5 223.05 -5.5 226.15 0 230.55
L 1.2 232
Q 5.10078125 228.774609375 8.9 226.85 5.10078125 228.774609375 1.2 232 -2.72421875 235.29921875 -6.75 239.9 -15.25 249.6 -15.25 255.45 -15.25 255.7 -12.4 266.9 -8.6 278.85 -3.7 283.2
L -1.5 285.45
Q 7.6197265625 276.8720703125 19.15 273 7.6197265625 276.8720703125 -1.5 285.45 -2.9408203125 286.8791015625 -4.35 288.4 -15.25 300.2 -15.25 312.65 -15.25 323.3 -12 332.65 -7.65 345.2 1.3 349.85
L 3.25 351.6
Q 8.615625 345.5537109375 17.85 338.3 8.615625 345.5537109375 3.25 351.6 -1.35390625 356.8552734375 -3.05 361.2 -4.7 365.5 -5 371.6 -5 371.9 -5 384.95 -5 400.4 0 410 7.35 424.1 24.85 424.1 38.2 424.1 45.65 417.7 52.7064453125 411.638671875 60.95 394.5 61.818359375 392.7255859375 62.7 390.8 61.818359375 392.7255859375 60.95 394.5
L 60.85 397.05
Q 61.3 398.05 61.95 399.05 72.65 416 84.9 422.55 89.6 425.1 94.6 426.05 112.45 429.55 133.3 412.8 134.2 411.35 134.85 409.85 137.25 404.65 137.25 401.35 137.25 399.85 136 391.8 134.8 383.75 128.65 376.3 173.5 362.3 140.95 319.4 141.95 317.4 143 315.55 143.45 314.8 143.95 314 162.55 284.75 137.25 260.9 135.95 260.45 134.65 260.25 129.95 259.6 132.85 254.75 135.7 249.85 140.45 241.95 141.4 240.4 142.2 238.95 145.55 232.95 146.95 228.7 149.45 221.4 149.45 213.1 149.45 199.4 146.9 181.05 144.4 163.1 137 149.55 146.6 148.3 159.85 145.05 173.1 141.8 194.55 132.2 215.95 122.6 242.1 97.65 308.15 75.8 357.65 117.55 386.4 141.8 400.15 168.75 401.3 171 402.35 173.35 402.85 174.4 403.35 175.55
L 404.85 174.85
Q 413.15 167.5 416.8 163.15 425.35 152.95 425.75 140 426.3 124.5 420.05 110.65 417.6 105.1 412.05 102.95 402.8 99.15 394.25 94.05 Z"/>

<path fill="#990000" fill-opacity="0.9882352941176471" stroke="none" d="
M 327.95 353.25
Q 327.1 349.55 327.45 353.7 327.75 353.7 328.1 353.8 328 353.55 327.95 353.25
M 333.9 321.35
Q 332.2 321.35 330.5 321.3
L 330.5 335.7 323 335.7
Q 319.9 335.05 318.75 333.8 317.8 332.8 317.9 330.85 318.25 328.2 318.4 326.5 318.7 323.35 318.25 320.6
L 313.9 318.95
Q 313.3 318.8 312.7 318.65 312.35 321.1 310.55 326.15 309.35 329.6 310 332.95
L 303.8 332.95
Q 301.35 330.5 300.5 329.05 299.75 327.75 299.75 326.1 299.75 324.4 299.95 323.35 300.2 321.55 302.65 315.2 298.5 314 290.2 312.75 278.5 310.95 291.1 330 291.9 331.25 292.75 332.4 303.1 347.25 312.85 350.8 314.15 351.25 315.5 351.55 318.1 352.1 321.05 352.65 324.05 353.15 327.45 353.7 327.1 349.55 327.95 353.25 328 353.55 328.1 353.8 328.2 353.8 328.35 353.85 331.35 354.25 334.7 354.75 334.85 350.65 334.75 350.3 334.6 349.85 334.6 348.65 334.6 345.1 336.65 343.95 337.9 343.2 341.35 343.2 343.05 343.2 344.1 343.3
L 344.75 335.65
Q 340.9 335.3 339.15 332.6 337.35 329.85 337.75 321.4
L 333.9 321.35 Z"/>
</g>

<g id="Layer1_1_FILL">
<path fill="#AFD5E4" stroke="none" d="
M 138 232.9
Q 138 227.75 134.5 224.05 131.5 220.95 127.45 220.55 126.75 220.45 126.05 220.45 121.05 220.45 117.6 224.05 114.1 227.75 114.1 232.9 114.1 238.05 117.6 241.7 121.05 245.35 126.05 245.35 131 245.35 134.5 241.7 136.25 239.9 137.15 237.7 138 235.5 138 232.9 Z"/>
</g>

<g id="Layer1_2_FILL">
<path fill="#AFD5E4" stroke="none" d="
M 297.1 231.25
Q 297.1 225.75 293.3 221.85 291.4 219.95 289.1 219 286.8 218 284.1 218 278.75 218 274.95 221.85 271.15 225.75 271.15 231.25 271.15 236.7 274.95 240.6 278.75 244.5 284.1 244.5 286.8 244.5 289.1 243.55 291.4 242.55 293.3 240.6 297.1 236.7 297.1 231.25 Z"/>
</g>

<path id="Layer1_0_1_STROKES" stroke="#000000" stroke-width="8" stroke-linejoin="round" stroke-linecap="round" fill="none" d="
M 182.85 62.7
Q 195.05 40.55 222.55 35.25 236.75 32.55 253.35 35.2 259.9 36.1 265.9 39 279.25 45.3 293.4 48.65 298.1 49.75 302.8 48.65 320.6 44.9 338.55 45.25 364.55 46.1 378.9 67.45 384.3 75.55 387.15 84.9 389 90.85 394.25 94.05 402.8 99.15 412.05 102.95 417.6 105.1 420.05 110.65 426.3 124.5 425.75 140 425.35 152.95 416.8 163.15 413.15 167.5 404.85 174.85
M 403.35 175.55
Q 403.8 176.55 404.2 177.55 404.95 179.35 405.6 181.15 410.7 194.75 412.15 209.05 417.25 210.9 421.35 213.9 432.2 221.8 431.95 232.2 431.7 242.55 422.35 246.9 421.7 247.2 421 247.5 420.8 247.55 420.65 247.65 420.55 247.65 420.45 247.7 420.4 247.7 420.4 247.75
M 421.85 250.15
Q 422 254.05 422.3 257.7
M 403.35 175.55
Q 402.85 174.4 402.35 173.35 401.3 171 400.15 168.75 386.4 141.8 357.65 117.55 308.15 75.8 242.1 97.65 215.95 122.6 194.55 132.2 173.1 141.8 159.85 145.05 146.6 148.3 137 149.55 144.4 163.1 146.9 181.05 149.45 199.4 149.45 213.1 149.45 221.4 146.95 228.7 145.55 232.95 142.2 238.95 141.4 240.4 140.45 241.95 135.7 249.85 132.85 254.75 129.95 259.6 134.65 260.25 135.95 260.45 137.25 260.9 162.55 284.75 143.95 314
M 140.95 319.4
Q 173.5 362.3 128.65 376.3 134.8 383.75 136 391.8 137.25 399.85 137.25 401.35 137.25 404.65 134.85 409.85 134.2 411.35 133.3 412.8 112.45 429.55 94.6 426.05 194.5 466.05 329.65 473.2 333 473.35 336.4 473.5 338.2 473.6 340 473.65 368.4 474.85 398.3 474.65 401.35 461.9 414.35 448.1 419.05 443.2 426.85 436.15 435.9 428.15 440.45 424 457 408.8 464.7 396.5 475.45 379.4 475.45 359.95 475.45 346.35 467.7 334.4 463.3 327.55 450.3 313.95 437.5 300.6 431.8 291.6 424.308984375 279.5642578125 422.4 258.65 422.40234375 258.625 422.4 258.6
M 420.4 247.75
Q 418.2 248.6 415.55 249.4
L 415.45 249.4
Q 406.75 251.9 393.1 253.4 383.15 254.5 374.6 253.4 366.05 252.2 358.9 248.75 344.7 241.85 344.95 231.5 345.15 221.2 359.8 213.55 374.35 205.95 392.4 205.95 403.65 205.95 412.15 209.05
M 422.3 257.7
Q 422.35 258.15 422.4 258.6
M 337.75 321.4
Q 342.15 321.35 350.95 319.65
L 351 319.65
M 303.8 293.3
Q 307 291.2 312.85 287.25 317.5 284.4 319.5 284.4 319.8 284.4 326.2 300.05 328.65 301.1 335.15 303.35 341.65 305.55 346.5 304.3 351.35 303 356.3 303.85 361.2 304.7 361.2 311.15 361.2 317.55 351.8 319.45 351.35 319.55 351 319.65
M 337.75 321.4
L 333.9 321.35
Q 332.2 321.35 330.5 321.3
M 313.9 318.95
Q 313.3 318.8 312.7 318.65
M 302.65 315.2
Q 298.5 314 290.2 312.75 278.5 310.95 291.1 330 291.9 331.25 292.75 332.4 303.1 347.25 312.85 350.8 314.15 351.25 315.5 351.55 318.1 352.1 321.05 352.65 324.05 353.15 327.45 353.7
M 328.1 353.8
Q 328.2 353.8 328.35 353.85 331.35 354.25 334.7 354.75
M 345.5 356.05
Q 346.2 356.1 346.9 356.2 351.2 363.4 342.15 365.15 333.1 366.9 317.55 368.45
M 327.45 353.7
Q 327.75 353.7 328.1 353.8
M 334.7 354.75
Q 339.75 355.4 345.5 356.05
M 182.85 72.65
Q 186.45 72.7 191.65 72.75 197.55 72.65 201.8 71.7 212.5 69.2 224.8 57.95
M 73.2 85.05
L 73.225 85.025
Q 82.2193359375 76.341796875 96 70.55 108.6 65.25 117.65 65.25 128.1 65.25 148.9 68.95 169.7 72.65 180.25 72.65 181.35 72.65 182.7 72.65 182.75 72.65 182.85 72.65
M 71.65 83.2
Q 64.65 77.45 59.3 76.1 57.3 75.55 51.15 75.55 21.75 75.55 21.75 101.85 21.75 109.85 22.2 111.5 23.05 114.55 28.1 121.7
M 26.8 123
Q 19.75 120.05 17 119.4 15.65 119.1 12.15 119.1 -2 119.1 -10.05 135.85 -16.55 149.5 -16.55 166.55 -16.55 185.55 -2.7 192.8 -0.7927734375 193.7939453125 1.325 194.55 12.380859375 198.465234375 29.4 195.95
M 8.9 226.85
Q 5.10078125 228.774609375 1.2 232.025 -2.72421875 235.29921875 -6.75 239.9 -15.25 249.6 -15.25 255.45 -15.25 255.7 -12.4 266.9 -8.6 278.85 -3.7 283.2
M -1.475 285.475
Q 7.6197265625 276.8720703125 19.15 273
M 1.3 349.85
Q -7.65 345.2 -12 332.65 -15.25 323.3 -15.25 312.65 -15.25 300.2 -4.35 288.4 -2.9408203125 286.8791015625 -1.475 285.475
M 62.7 390.8
Q 61.818359375 392.7255859375 60.95 394.525
M 60.85 397.05
Q 61.3 398.05 61.95 399.05 72.65 416 84.9 422.55 89.6 425.1 94.6 426.05
M 87.95 429.65
Q 88.05 429.85 88.15 430.05 91.45 436.65 96.15 442.95 107.15 457.75 125.85 470.5 142.05 481.55 161.15 489.25 174.2 494.5 188.6 498.25 191.65 499 194.7 499.7 235 508.95 271.55 503.05 280.45 501.6 288.6 499.4
L 290.9 498.7
Q 315.2 491.5 332.75 476.75
M 3.275 351.6
Q 8.615625 345.5537109375 17.85 338.3
M 143.95 314
Q 143.45 314.8 143 315.55 141.95 317.4 140.95 319.4
M 265.45 243.75
Q 262.5 246.5 257.9 248.9 245 255.65 226.95 255.65 226.55 255.65 226.15 255.65 208.6 255.5 196.6 248.9 184.35 242.1 183.55 232.55 182.75 222.95 195.6 216.2 208.55 209.4 226.75 209.4 245 209.4 257.9 216.2 270.8 222.95 270.8 232.55 270.8 235.4 269.65 238 268.3 241.05 265.45 243.75 Z
M 312.7 318.65
Q 308.4 317.4 305.35 316.1 304.35 315.65 302.65 315.2
M 66.25 445.5
Q 63.975 448.5513671875 61.65 451.85 60.819140625 453.033984375 60 454.225 48.2861328125 471.22890625 38.8 489.5 37.364453125 492.2638671875 36.025 494.95 35.9998046875 495 35.975 495.05 14.3990234375 538.55078125 19.15 562.4
M 84.9 422.55
Q 85.1134765625 423.1412109375 85.35 423.725 86.4875 426.7248046875 87.95 429.65
M 84.5 424.1
Q 82.219921875 426.3259765625 79.85 428.875
M 67.1 444.35
Q 67.3998046875 443.947265625 67.7 443.55 74.0279296875 435.2025390625 79.85 428.875
M 67.1 444.35
Q 66.6708984375 444.9216796875 66.25 445.5
M 60.95 394.525
Q 52.7064453125 411.638671875 45.65 417.7 38.2 424.1 24.85 424.1 7.35 424.1 0 410 -5 400.4 -5 384.95 -5 371.9 -5 371.6 -4.7 365.5 -3.05 361.2 -1.35390625 356.8552734375 3.275 351.6
M 336.4 473.5
Q 334.6 475.15 332.75 476.75
M 361.95 498.35
Q 362.25 498.55 362.55 498.75 374.6 506.5 384.2 505.85 393.45 505.25 397.4 497.1 401.45 488.6 398.3 474.65
M 336.4 473.5
Q 349.05 489.85 361.95 498.35
M 330.5 321.3
Q 321.7 320.95 313.9 318.95
M 1.325 194.55
Q 0.4052734375 195.125390625 -0.475 195.825 -3.858984375 198.5521484375 -6.6 203.2 -10.05 209.05 -10.05 213.85 -10.05 219.2 -7.5 223.05 -5.5 226.15 0 230.55"/>

<path id="Layer1_0_2_STROKES" stroke="#000000" stroke-width="4" stroke-linejoin="round" stroke-linecap="round" fill="none" d="
M 420.95 249.4
Q 419.45 251.25 417.6 252.8 417.15 253.1 416.75 253.45
M 421.4 258.65
Q 421.85 258.2 422.3 257.7
M 234.7 128.8
Q 243.65 128.8 248.05 127.85 249.45 127.55 251.3 127.4
L 271.7 128.5
Q 276.85 129 287.15 130.75 297.85 132.65 298.95 132.85 307.4 134.15 312.95 134.15 321.35 134.15 335.6 131.35 348.5 128.85 351.75 129.3
M 397.3 170.2
Q 392.2 164.8 376.4 170.8 360.55 176.8 356.6 180.05 352.6 183.2 352.2 184.05 351.65 185.1 353.4 188.1 355.65 192 361.5 189.95 364.05 189 371.95 184.35 374.9 182.65 381.6 181.4 390.65 179.65 403.1 182.05
M 218.75 147.4
Q 223.1 143.8 228.95 142.9 231.05 142.6 238.85 142.6 247.8 142.6 274.8 150.9 291.75 156.1 307.65 159.25 318.75 158.75 322.4 158.05 326 157.25 327.4 157.15 328.8 156.95 330.75 156.15 346.15 150.25 348.4 149.5 358.7 145.85 364.9 145
M 421.4 258.65
Q 421.35 258.7 421.3 258.8 421.2748046875 258.824609375 421.25 258.85 404.9974609375 274.543359375 371.25 270.3
M 422.3 257.7
Q 422.65 257.35 422.95 257
M 416.75 253.45
Q 403.75 263.2 374 260.1 373.85 260.1 373.75 260.1 373.7130859375 260.095703125 373.675 260.1 364.9572265625 259.0916015625 354.85 257.1
M 337.75 321.4
Q 337.35 329.85 339.15 332.6 340.9 335.3 344.75 335.65 345.3 335.7 345.85 335.7 352.4 335.7 352.4 332.2 352.4 331.65 351.7 327 351.05 322.3 351.05 319.9
M 330.5 321.3
L 330.5 335.7 323 335.7
Q 319.9 335.05 318.75 333.8 317.8 332.8 317.9 330.85 318.25 328.2 318.4 326.5 318.7 323.35 318.25 320.6
M 312.7 318.65
Q 312.35 321.1 310.55 326.15 309.35 329.6 310 332.95
L 303.8 332.95
Q 301.35 330.5 300.5 329.05 299.75 327.75 299.75 326.1 299.75 324.4 299.95 323.35 300.2 321.55 302.65 315.2
M 327.45 353.7
Q 327.1 349.55 327.95 353.25 328 353.55 328.1 353.8
M 334.7 354.75
Q 334.85 350.65 334.75 350.3 334.6 349.85 334.6 348.65 334.6 345.1 336.65 343.95 337.9 343.2 341.35 343.2 343.05 343.2 344.1 343.3 345.2 343.4 345.65 343.55 346.65 343.9 346.55 345.2 346.5 346.15 345.95 349.3 345.45 352.55 345.5 356.05
M 345.5 356.85
Q 345.5 356.55 345.5 356.25 345.5 356.15 345.5 356.05
M 328.35 353.85
Q 328.5 355.45 328.1 353.8
M 191.55 185.85
L 190.7 189.15
Q 191.75 189.15 199.6 186.65 207.45 184.15 219.5 181.85 231.5 179.5 265.7 190.65 270.8 185.45 269.15 183.2 267.55 180.9 266.25 179.5 264.9 178.05 262.1 176.4 259.95 175.15 257.65 174.5 245.85 171.35 239.8 170.25 231.05 168.7 223.45 168.45 217.7 168.3 213.6 168.45 205.75 168.65 202.75 171.85 199 175.55 191.55 185.85 Z
M 278.9 116.2
L 290.1 116.2
Q 291.7 117.15 294.95 117.65 298.15 118.15 301.95 118.15 307.25 118.15 312.9 117.2 317.6 116.4 320.7 116.7
M 265.45 243.75
Q 271.1 248 269.7 252.15 268.8 254.75 265.45 256.85 263.85 257.85 261.65 258.75 255 261.45 245.65 262 235.65 262.6 225.95 260.45
M 191.65 258.4
Q 202 265.15 214.55 270.25 227.05 275.35 241.7 272.35 256.3 269.35 262.75 265.95 269.5 262.35 265.75 257.4
M 173 251.3
Q 170.5 251.55 168.3 251.6 154.35 251.85 149.5 243.05
M 291.65 332.6
Q 292.2 332.45 292.75 332.4
M 152 256.4
Q 159.65 260.65 168.3 259.25
M 162.95 395.45
Q 219.25 434.05 271.75 408.3"/>

<path id="Layer1_1_1_STROKES" stroke="#000000" stroke-width="4" stroke-linejoin="round" stroke-linecap="round" fill="none" d="
M 138 232.9
Q 138 235.5 137.15 237.7 136.25 239.9 134.5 241.7 131 245.35 126.05 245.35 121.05 245.35 117.6 241.7 114.1 238.05 114.1 232.9 114.1 227.75 117.6 224.05 121.05 220.45 126.05 220.45 126.75 220.45 127.45 220.55 131.5 220.95 134.5 224.05 138 227.75 138 232.9 Z"/>

<path id="Layer1_2_1_STROKES" stroke="#000000" stroke-width="4" stroke-linejoin="round" stroke-linecap="round" fill="none" d="
M 297.1 231.25
Q 297.1 236.7 293.3 240.6 291.4 242.55 289.1 243.55 286.8 244.5 284.1 244.5 278.75 244.5 274.95 240.6 271.15 236.7 271.15 231.25 271.15 225.75 274.95 221.85 278.75 218 284.1 218 286.8 218 289.1 219 291.4 219.95 293.3 221.85 297.1 225.75 297.1 231.25 Z"/>
</defs>

<g transform="matrix( 1, 0, 0, 1, 22,0) ">
<use xlink:href="#Layer1_0_FILL"/>

<use xlink:href="#Layer1_0_1_STROKES"/>

<use xlink:href="#Layer1_0_2_STROKES"/>
</g>

<g transform="matrix( 1, 0, 0, 1, 130.8,-3.4) ">
<use xlink:href="#Layer1_1_FILL"/>

<use xlink:href="#Layer1_1_1_STROKES"/>
</g>

<g transform="matrix( 1, 0, 0, 1, 132,-4) ">
<use xlink:href="#Layer1_2_FILL"/>

<use xlink:href="#Layer1_2_1_STROKES"/>
</g>
</svg>
