
<svg xmlns="http://www.w3.org/2000/svg" version="1.1" xmlns:xlink="http://www.w3.org/1999/xlink" preserveAspectRatio="none" x="0px" y="0px" width="500px" height="500px" viewBox="0 0 500 500">
<defs>
<g id="Layer1_0_MEMBER_0_FILL">
<path fill="#663300" stroke="none" d="
M 345.65 271.4
Q 347.9 246.6 334.05 200.35 306.65 123.75 288.9 83.95 263.55 26.85 242.6 8.75 227.4 -4.8 219.6 9.75 213.5 20.85 205.1 66.9 198.3 102.8 189.45 198.75 171.080078125 256.9728515625 171.1 331.6 171.16484375 406.2328125 195.35 433.5 219.544921875 460.8056640625 247.6 442.25 299.2490234375 426.35 311.35 393.25 342.55 307.5 345.65 271.4 Z"/>
</g>

<g id="Layer1_0_MEMBER_1_FILL">
<path fill="#C7BBAF" stroke="none" d="
M 21.95 13.05
Q 19.7240234375 10.5376953125 16.05 10.85 12.39375 11.1560546875 10.15 13.4 7.95 15.7 8.4 19.3 8.85 22.9 11.7 25.7 14.551171875 28.4962890625 18.2 28.3 21.8908203125 28.1109375 23.45 25.55 25.0740234375 23.0380859375 24.65 19.3 24.2146484375 15.6052734375 21.95 13.05 Z"/>
</g>

<g id="Layer1_0_MEMBER_2_FILL">
<path fill="#996600" stroke="none" d="
M 27.1 14.45
Q 26.4 13.75 26.3 14.1 26.2 14.45 26.75 15.55 27.05 16.1 27.6 17.45 27.85 18.1 27.95 17.8 28.1 17.3 27.8 16.1 27.5 14.85 27.1 14.45
M 26.95 6.4
Q 25.6 5.75 25.6 6.3 25.6 6.85 26.95 8.2 27.65 8.9 29 10.55 29.65 11.4 29.65 10.9 29.65 10.15 28.7 8.5 27.75 6.8 26.95 6.4 Z"/>
</g>

<g id="Layer1_0_MEMBER_3_FILL">
<path fill="#996600" stroke="none" d="
M 27.1 14.45
Q 26.4 13.75 26.3 14.1 26.2 14.45 26.75 15.55 27.05 16.1 27.6 17.45 27.85 18.1 27.95 17.8 28.1 17.3 27.8 16.1 27.5 14.85 27.1 14.45
M 26.95 6.4
Q 25.6 5.75 25.6 6.3 25.6 6.85 26.95 8.2 27.65 8.9 29 10.55 29.65 11.4 29.65 10.9 29.65 10.15 28.7 8.5 27.75 6.8 26.95 6.4 Z"/>
</g>

<g id="Layer1_0_MEMBER_4_FILL">
<path fill="#996600" stroke="none" d="
M 27.1 14.45
Q 26.4 13.75 26.3 14.1 26.2 14.45 26.75 15.55 27.05 16.1 27.6 17.45 27.85 18.1 27.95 17.8 28.1 17.3 27.8 16.1 27.5 14.85 27.1 14.45
M 26.95 6.4
Q 25.6 5.75 25.6 6.3 25.6 6.85 26.95 8.2 27.65 8.9 29 10.55 29.65 11.4 29.65 10.9 29.65 10.15 28.7 8.5 27.75 6.8 26.95 6.4 Z"/>
</g>

<g id="Layer1_0_MEMBER_5_FILL">
<path fill="#996600" stroke="none" d="
M 177.6 258.2
Q 167.3 262.45 170.15 265.8 172.95 269.15 186.85 269.15 194.05 269.1 209.4 270.95 217.15 272.15 214.55 269.15 210.7 264.55 197.4 260.3 183.75 255.75 177.6 258.2 Z"/>
</g>
</defs>

<g transform="matrix( 0.9349365234375, 0.934906005859375, -0.934906005859375, 0.9349365234375, 248.9,-196.4) ">
<use xlink:href="#Layer1_0_MEMBER_0_FILL"/>
</g>

<g transform="matrix( 6.676177978515625, -7.9120330810546875, 6.8662567138671875, 8.137680053710938, -133.35,366) ">
<use xlink:href="#Layer1_0_MEMBER_1_FILL"/>
</g>

<g transform="matrix( 10.494400024414062, -0.8891754150390625, -0.8887176513671875, 10.488983154296875, 101.35,44.75) ">
<use xlink:href="#Layer1_0_MEMBER_2_FILL"/>
</g>

<g transform="matrix( 10.494400024414062, -0.8891754150390625, -0.8887176513671875, 10.488983154296875, -7.95,122.65) ">
<use xlink:href="#Layer1_0_MEMBER_3_FILL"/>
</g>

<g transform="matrix( 9.53302001953125, 4.476959228515625, -6.01397705078125, 8.639389038085938, 91.1,119.75) ">
<use xlink:href="#Layer1_0_MEMBER_4_FILL"/>
</g>

<g transform="matrix( 1.14501953125, 0.66107177734375, -0.66107177734375, 1.14501953125, 128,-166.5) ">
<use xlink:href="#Layer1_0_MEMBER_5_FILL"/>
</g>
</svg>
